# xmcd
#
# Track frame offsets:
# 150
# 17740
# 34200
# 49536
# 59786
# 76850
# 91750
# 105418
# 121732
# 138733
# 153251
# 169530
# 187256
# 205634
# 220628
# 236278
# 250748
# 265570
# 288673
# 299159
#
# Disc length: 4203 seconds
#
#
# Revision: 0
# Processed by: cddbd v1.5.2PL0 Copyright (c) Steve Scherf et al.
# Submitted via: FreeRIP 2.951 
#
DISCID=16106914
DTITLE=Almir Sater - Almir Sater 2007
DYEAR=1900
DGENRE=
TTITLE0=7 Sinais
TTITLE1=Um Violeiro Toca
TTITLE2=No Rastro da Lua Cheia
TTITLE3=Shalana
TTITLE4=Maneira Simples
TTITLE5=Trem do Pantanal
TTITLE6=Tocando em Frente
TTITLE7=Planicie de Prata
TTITLE8=Mês de Maio
TTITLE9=Cabecinha no Ombro
TTITLE10=Estradeiro
TTITLE11=Rio de Lágrimas
TTITLE12=Romaria
TTITLE13=Horizontes
TTITLE14=Pantanal
TTITLE15=Peão
TTITLE16=Varandas
TTITLE17=Cavaleiro da Lua
TTITLE18=Ana Raio e Zé Trovão
TTITLE19=Boiadeiro de Mabilique
EXTD=
EXTT0=
EXTT1=
EXTT2=
EXTT3=
EXTT4=
EXTT5=
EXTT6=
EXTT7=
EXTT8=
EXTT9=
EXTT10=
EXTT11=
EXTT12=
EXTT13=
EXTT14=
EXTT15=
EXTT16=
EXTT17=
EXTT18=
EXTT19=
PLAYORDER=
